# xmcd
#
# Track frame offsets:
#	150
#	13615
#	32695
#	47589
#	71317
#	90579
#	107933
#	130239
#	141162
#
# Disc length: 2132 seconds
#
# Revision: 1
# Processed by: cddbd v1.5.2PL0 Copyright (c) Steve Scherf et al.
# Submitted via: audiograbber 1.83.01
#
DISCID=72085209
DTITLE=Outlaw Jim and the Whiskey Benders - Wanted
DYEAR=2006
DGENRE=
TTITLE0=Born an Outlaw
TTITLE1=Willin'
TTITLE2=Bug on the Bumper
TTITLE3=Angel in the Sky
TTITLE4=Highway Forty Blues
TTITLE5=Nowhere Fast
TTITLE6=24 Hours at a Time
TTITLE7=Kansas City Star
TTITLE8=Lonesome
EXTD=
EXTT0=
EXTT1=
EXTT2=
EXTT3=
EXTT4=
EXTT5=
EXTT6=
EXTT7=
EXTT8=
PLAYORDER=
